# xmcd
#
# Track frame offsets:
#	183
#	21813
#	42493
#	61403
#	81783
#	102370
#	127413
#	144698
#	162503
#	188743
#	210428
#	232268
#	253183
#	271158
#
# Disc length: 3823 seconds
#
# Revision: 0
# Processed by: cddbd v1.5.1PL0 Copyright (c) Steve Scherf et al.
# Submitted via: audiograbber 1.83.01
#
DISCID=d30eed0e
DTITLE=Stefan Waggershausen - Star Gala
DYEAR=1994
DGENRE=Pop
TTITLE0=Der Drache in mir (schl‰ft nie fest)
TTITLE1=Sie ist 'n ganz besonderes M‰dchen
TTITLE2=Bitte laﬂ es Liebe sein
TTITLE3=Sterne fallen
TTITLE4=Irgend jemand ruft nach mir
TTITLE5=Rikki und Rosi
TTITLE6=Tote schlafen fest
TTITLE7=Tendenz - "‹berwiegend heiter"
TTITLE8=Bumerang
TTITLE9=Silbermond
TTITLE10=Be-Bop (Und einer dieser Wilden sang)
TTITLE11=Die Angst des Toreros
TTITLE12=Wie'n Korken auf'm Ozean
TTITLE13=Laﬂ mich in dich tauchen
EXTD=
EXTT0=
EXTT1=
EXTT2=
EXTT3=
EXTT4=
EXTT5=
EXTT6=
EXTT7=
EXTT8=
EXTT9=
EXTT10=
EXTT11=
EXTT12=
EXTT13=
PLAYORDER=
